<?xml version="1.0" encoding="UTF-8"?>
<svg id="Layer_1" data-name="Layer 1" xmlns="http://www.w3.org/2000/svg" viewBox="0 0 146.47 146.47">
  <defs>
    <style>
      .cls-1 {
        fill: #181818;
      }

      .cls-2 {
        fill: #eaeaea;
      }
    </style>
  </defs>
  <g>
    <polygon class="cls-2" points="58.37 61.78 26 61.78 26 126.08 58.37 61.78"/>
    <polygon class="cls-2" points="58.37 126.08 58.37 70.81 26 126.08 58.37 126.08"/>
    <polygon class="cls-2" points="86.34 20.38 120.47 20.38 73.02 101.2 94.04 76.32 118.05 126.08 81.49 126.08 58.37 70.81 86.34 20.38"/>
    <circle class="cls-2" cx="42.18" cy="37.34" r="16.19"/>
  </g>
  <path class="cls-2" d="M146.47,146.47H0V0h146.47v146.47ZM4,142.47h138.47V4H4v138.47Z"/>
  <g>
    <polygon class="cls-1" points="58.51 61.78 26.14 61.78 26.14 126.08 58.51 61.78"/>
    <polygon class="cls-1" points="58.51 126.08 58.51 70.81 26.14 126.08 58.51 126.08"/>
    <polygon class="cls-1" points="86.48 20.38 120.61 20.38 73.16 101.2 94.19 76.32 118.19 126.08 81.64 126.08 58.51 70.81 86.48 20.38"/>
    <circle class="cls-1" cx="42.33" cy="37.34" r="16.19"/>
  </g>
  <path class="cls-1" d="M146.61,146.47H.14V0h146.47v146.47ZM4.14,142.47h138.47V4H4.14v138.47Z"/>
</svg>