<?xml version="1.0" encoding="UTF-8"?>
<svg id="Layer_1" data-name="Layer 1" xmlns="http://www.w3.org/2000/svg" viewBox="0 0 788.02 146.47">
  <defs>
    <style>
      .cls-1 {
        fill: #eaeaea;
      }
    </style>
  </defs>
  <g>
    <polygon class="cls-1" points="58.37 61.78 26 61.78 26 126.08 58.37 61.78"/>
    <polygon class="cls-1" points="58.37 126.08 58.37 70.81 26 126.08 58.37 126.08"/>
    <polygon class="cls-1" points="86.34 20.38 120.47 20.38 73.02 101.2 94.04 76.32 118.05 126.08 81.49 126.08 58.37 70.81 86.34 20.38"/>
    <circle class="cls-1" cx="42.18" cy="37.34" r="16.19"/>
  </g>
  <g>
    <rect class="cls-1" x="186.44" y="31.45" width="16.1" height="83.22"/>
    <path class="cls-1" d="M261.31,59.44c-3.28-2.09-7.04-3.14-11.3-3.14s-8.23.95-11.66,2.84c-1.86,1.03-3.49,2.27-4.91,3.73v-5.39h-15.51v57.17h15.51v-32.79c0-2.21.49-4.2,1.48-5.98.99-1.78,2.35-3.14,4.08-4.08,1.73-.95,3.71-1.42,5.92-1.42,3.31,0,6.04,1.07,8.17,3.2,2.13,2.13,3.2,4.89,3.2,8.29v32.79h15.63v-36.34c0-3.79-.95-7.36-2.84-10.71-1.89-3.35-4.48-6.08-7.75-8.17Z"/>
    <polygon class="cls-1" points="307.66 33.7 292.15 33.7 292.15 57.49 278.77 57.49 278.77 71.1 292.15 71.1 292.15 114.67 307.66 114.67 307.66 71.1 321.03 71.1 321.03 57.49 307.66 57.49 307.66 33.7"/>
    <path class="cls-1" d="M369.21,59.86c-4.26-2.45-9.08-3.67-14.44-3.67-5.68,0-10.81,1.3-15.39,3.91-4.58,2.6-8.19,6.16-10.83,10.65-2.64,4.5-3.96,9.59-3.96,15.27s1.34,10.89,4.02,15.39c2.68,4.5,6.37,8.05,11.07,10.65,4.69,2.6,10.04,3.91,16.04,3.91,4.66,0,8.96-.83,12.9-2.49,3.95-1.66,7.38-4.14,10.3-7.46l-9.23-9.23c-1.74,2.05-3.79,3.55-6.16,4.5-2.37.95-5.01,1.42-7.93,1.42-3.24,0-6.08-.67-8.52-2.01-2.45-1.34-4.32-3.29-5.62-5.86-.52-1.02-.93-2.11-1.24-3.27l41.78-.1c.31-1.26.51-2.43.59-3.49.08-1.07.12-2.11.12-3.14,0-5.52-1.18-10.46-3.55-14.8-2.37-4.34-5.68-7.73-9.94-10.18ZM346.6,71.22c2.29-1.34,4.97-2.01,8.05-2.01,2.92,0,5.37.59,7.34,1.78,1.97,1.18,3.51,2.92,4.62,5.21.53,1.1.94,2.34,1.23,3.69l-27.62.08c.29-1.06.66-2.06,1.12-3,1.22-2.49,2.98-4.4,5.27-5.74Z"/>
    <path class="cls-1" d="M430.23,57.67c-2.17-.91-4.68-1.36-7.52-1.36-6.39,0-11.29,2.03-14.68,6.1-.04.05-.08.11-.12.16v-5.07h-15.51v57.17h15.51v-31.49c0-4.34,1.04-7.54,3.14-9.59,2.09-2.05,4.79-3.08,8.11-3.08,1.58,0,2.98.22,4.2.65,1.22.43,2.27,1.17,3.14,2.19l9.71-11.25c-1.82-2.05-3.81-3.53-5.98-4.44Z"/>
    <path class="cls-1" d="M484.92,59.44c-3.28-2.09-7.04-3.14-11.3-3.14s-8.23.95-11.66,2.84c-1.86,1.03-3.49,2.27-4.91,3.73v-5.39h-15.51v57.17h15.51v-32.79c0-2.21.49-4.2,1.48-5.98.99-1.78,2.35-3.14,4.08-4.08,1.73-.95,3.71-1.42,5.92-1.42,3.31,0,6.04,1.07,8.17,3.2,2.13,2.13,3.2,4.89,3.2,8.29v32.79h15.63v-36.34c0-3.79-.95-7.36-2.84-10.71-1.89-3.35-4.48-6.08-7.75-8.17Z"/>
    <path class="cls-1" d="M548.9,59.86c-4.26-2.45-9.08-3.67-14.44-3.67-5.68,0-10.81,1.3-15.39,3.91-4.58,2.6-8.19,6.16-10.83,10.65-2.64,4.5-3.96,9.59-3.96,15.27s1.34,10.89,4.02,15.39c2.68,4.5,6.37,8.05,11.07,10.65,4.69,2.6,10.04,3.91,16.04,3.91,4.66,0,8.96-.83,12.9-2.49,3.95-1.66,7.38-4.14,10.3-7.46l-9.23-9.23c-1.74,2.05-3.79,3.55-6.16,4.5-2.37.95-5.01,1.42-7.93,1.42-3.24,0-6.08-.67-8.52-2.01-2.45-1.34-4.32-3.29-5.62-5.86-.52-1.02-.93-2.11-1.24-3.27l41.78-.1c.31-1.26.51-2.43.59-3.49.08-1.07.12-2.11.12-3.14,0-5.52-1.18-10.46-3.55-14.8-2.37-4.34-5.68-7.73-9.94-10.18ZM526.29,71.22c2.29-1.34,4.97-2.01,8.05-2.01,2.92,0,5.37.59,7.34,1.78,1.97,1.18,3.51,2.92,4.62,5.21.53,1.1.94,2.34,1.23,3.69l-27.62.08c.29-1.06.66-2.06,1.12-3,1.22-2.49,2.98-4.4,5.27-5.74Z"/>
    <polygon class="cls-1" points="594.71 33.7 579.21 33.7 579.21 57.49 565.83 57.49 565.83 71.1 579.21 71.1 579.21 114.67 594.71 114.67 594.71 71.1 608.09 71.1 608.09 57.49 594.71 57.49 594.71 33.7"/>
    <polygon class="cls-1" points="711.08 31.45 690.95 31.45 657.69 69.08 657.69 31.45 641.59 31.45 641.59 114.67 657.69 114.67 657.69 73.5 691.9 114.67 712.26 114.67 675.32 71.1 711.08 31.45"/>
    <path class="cls-1" d="M729.19,30.5c-2.53,0-4.62.87-6.27,2.6-1.66,1.74-2.49,3.83-2.49,6.27s.83,4.64,2.49,6.33c1.66,1.7,3.75,2.55,6.27,2.55s4.71-.85,6.33-2.55c1.62-1.7,2.43-3.81,2.43-6.33s-.81-4.54-2.43-6.27c-1.62-1.73-3.73-2.6-6.33-2.6Z"/>
    <rect class="cls-1" x="721.26" y="57.49" width="15.74" height="57.17"/>
    <polygon class="cls-1" points="788.02 57.49 774.64 57.49 774.64 33.7 759.14 33.7 759.14 57.49 745.76 57.49 745.76 71.1 759.14 71.1 759.14 114.67 774.64 114.67 774.64 71.1 788.02 71.1 788.02 57.49"/>
  </g>
  <path class="cls-1" d="M146.47,146.47H0V0h146.47v146.47ZM4,142.47h138.47V4H4v138.47Z"/>
</svg>